<?xml version="1.0" encoding="utf-8"?>
<svg version="1.1" xmlns="http://www.w3.org/2000/svg" xmlns:xlink="http://www.w3.org/1999/xlink" x="0px" y="0px" viewBox="0 0 127.343 45.936">
	<style type="text/css">
		.st0{fill:#333333;}
	</style>
	<g>
		<path class="st0" d="M0,2.256h11.761c3.231,0,5.735,0.8,7.512,2.399c1.776,1.601,2.664,3.776,2.664,6.528
			c0,3.647-1.824,6-5.472,7.056v0.288c4.352,1.057,6.527,3.729,6.527,8.017c0,2.815-0.904,5.056-2.712,6.72S16,35.76,12.864,35.76H0
			V2.256z M9.744,16.464c1.729,0,2.968-0.288,3.721-0.864c0.751-0.576,1.128-1.584,1.128-3.024v-1.439c0-1.44-0.377-2.44-1.128-3
			c-0.753-0.56-1.992-0.84-3.721-0.84H7.009v9.168H9.744z M10.656,30.72c1.76,0,3.031-0.296,3.816-0.889
			c0.783-0.591,1.176-1.639,1.176-3.144v-1.392c0-1.472-0.393-2.512-1.176-3.12c-0.785-0.607-2.057-0.912-3.816-0.912H7.009v9.456
			H10.656z"/>
		<path class="st0" d="M33.359,35.76c-4.703,0-7.056-2.305-7.056-6.912V0.239h7.104v28.416c0,0.513,0.136,0.904,0.407,1.176
			c0.271,0.272,0.664,0.408,1.177,0.408h1.584v5.521H33.359z"/>
		<path class="st0" d="M41.423,32.855c-2.208-2.319-3.312-5.479-3.312-9.479s1.104-7.16,3.312-9.48c2.208-2.319,5.248-3.48,9.12-3.48
			s6.912,1.161,9.12,3.48c2.208,2.32,3.312,5.48,3.312,9.48s-1.104,7.16-3.312,9.479c-2.208,2.32-5.248,3.48-9.12,3.48
			S43.631,35.176,41.423,32.855z M54.287,29.567c0.896-0.991,1.344-2.399,1.344-4.224v-3.937c0-1.823-0.448-3.231-1.344-4.224
			c-0.896-0.991-2.145-1.488-3.744-1.488c-1.601,0-2.849,0.497-3.744,1.488c-0.896,0.992-1.344,2.4-1.344,4.224v3.937
			c0,1.824,0.448,3.232,1.344,4.224c0.896,0.992,2.144,1.488,3.744,1.488C52.143,31.056,53.391,30.56,54.287,29.567z"/>
		<path class="st0" d="M89.471,34.271c0,3.712-1.064,6.584-3.191,8.616c-2.129,2.032-5.24,3.048-9.336,3.048
			c-4.416,0-7.776-1.2-10.08-3.6l3.792-4.513c1.632,1.696,3.663,2.544,6.096,2.544c1.888,0,3.296-0.472,4.224-1.416
			s1.393-2.296,1.393-4.056v-4.944h-0.336c-0.672,1.633-1.593,2.896-2.761,3.792c-1.168,0.896-2.696,1.345-4.584,1.345
			c-2.848,0-5.111-1.048-6.792-3.145c-1.68-2.096-2.52-5.16-2.52-9.191c0-4.032,0.84-7.096,2.52-9.192
			c1.681-2.096,3.944-3.145,6.792-3.145c1.888,0,3.416,0.449,4.584,1.345c1.168,0.896,2.089,2.144,2.761,3.744h0.336v-4.513h7.104
			V34.271z M81.071,28.607c0.863-0.64,1.296-1.584,1.296-2.832v-6.048c0-1.248-0.433-2.191-1.296-2.832
			c-0.864-0.64-1.969-0.96-3.312-0.96c-1.568,0-2.792,0.488-3.672,1.464c-0.881,0.977-1.32,2.328-1.32,4.056V24
			c0,1.728,0.439,3.088,1.32,4.079c0.88,0.992,2.104,1.488,3.672,1.488C79.103,29.567,80.207,29.248,81.071,28.607z"/>
		<path class="st0" d="M116.351,34.271c0,3.712-1.064,6.584-3.191,8.616c-2.129,2.032-5.24,3.048-9.336,3.048
			c-4.416,0-7.776-1.2-10.08-3.6l3.792-4.513c1.632,1.696,3.663,2.544,6.096,2.544c1.888,0,3.296-0.472,4.224-1.416
			s1.393-2.296,1.393-4.056v-4.944h-0.336c-0.672,1.633-1.593,2.896-2.761,3.792c-1.168,0.896-2.696,1.345-4.584,1.345
			c-2.848,0-5.111-1.048-6.792-3.145c-1.68-2.096-2.52-5.16-2.52-9.191c0-4.032,0.84-7.096,2.52-9.192
			c1.681-2.096,3.944-3.145,6.792-3.145c1.888,0,3.416,0.449,4.584,1.345c1.168,0.896,2.089,2.144,2.761,3.744h0.336v-4.513h7.104
			V34.271z M107.951,28.607c0.863-0.64,1.296-1.584,1.296-2.832v-6.048c0-1.248-0.433-2.191-1.296-2.832
			c-0.864-0.64-1.969-0.96-3.312-0.96c-1.568,0-2.792,0.488-3.672,1.464c-0.881,0.977-1.32,2.328-1.32,4.056V24
			c0,1.728,0.439,3.088,1.32,4.079c0.88,0.992,2.104,1.488,3.672,1.488C105.982,29.567,107.087,29.248,107.951,28.607z"/>
		<path class="st0" d="M127.343,0v7.584h-7.632V0H127.343z M119.951,10.991h7.104V35.76h-7.104V10.991z"/>
	</g>
</svg>
